<?xml version="1.0" encoding="utf-8"?>
<!-- Generator: Adobe Illustrator 16.0.0, SVG Export Plug-In . SVG Version: 6.00 Build 0)  -->
<!DOCTYPE svg PUBLIC "-//W3C//DTD SVG 1.1//EN" "http://www.w3.org/Graphics/SVG/1.1/DTD/svg11.dtd">
<svg version="1.1" id="Layer_1" xmlns="http://www.w3.org/2000/svg" xmlns:xlink="http://www.w3.org/1999/xlink" x="0px" y="0px"
	 width="397.215px" height="283.68px" viewBox="0 0 397.215 283.68" enable-background="new 0 0 397.215 283.68"
	 xml:space="preserve">
<g>
	
		<path fill="#FFFFFF" stroke="#333333" stroke-width="4" stroke-linecap="round" stroke-linejoin="round" stroke-miterlimit="10" d="
		M392.218,117.82c-0.311,40.49-36.891,68.37-70.221,84.1c-23.13,10.92-48.27,17.47-73.5,21.27c-6.909,1.04-13.87,1.771-20.84,2.351
		c-3.39,0.28-6.79,0.479-10.189,0.66c-2.771,0.14-5.54-0.45-7.591,1.62c-6.779,6.84-14.7,12.529-22.649,17.92
		c-12.19,8.26-25.06,15.58-38.24,22.14c-8.29,4.12-18.17,9.8-27.59,10.66c-0.33,0.03-0.56,0.03-0.72,0.02
		c0.2-1.25,1.27-2.66,1.84-3.6c3.17-5.2,7.35-9.83,11.24-14.49c8.59-10.28,18.52-20.72,24.02-33.1c0.57-1.29,0.26-3.42-1.5-3.67
		c-46.52-6.45-98.21-22.69-129.45-59.95c-11.73-13.99-18.81-31.49-17.83-49.88c0.94-17.63,10.01-33.66,21.72-46.43
		c31.49-34.34,81.45-49.62,126.23-55.63c52.97-7.1,109.68-1.95,159.07,19.2C351.438,46.179,391.888,75.15,392.218,117.82z"/>
	
		<path fill="#231F20" stroke="#231F20" stroke-width="4" stroke-linecap="round" stroke-linejoin="round" stroke-miterlimit="10" d="
		M397.207,117.51c-0.449-37.66-30.75-65.55-61.55-82.49c-44.76-24.64-98.31-32.65-148.83-30.75c-48.1,1.8-98.92,13.46-138.77,41.56
		c-28.43,20.04-50.68,51.92-42.25,88.06c6.12,26.2,27.1,46.34,48.95,60.41c28.98,18.66,63.24,28.78,97.15,33.78
		c-7.95,15.5-21.8,27.689-31.91,41.689c-2.23,3.08-6.6,8.98-2.97,12.58c2.78,2.75,8.64,0.521,11.67-0.43
		c17.28-5.43,33.75-14.91,49.15-24.25c8.7-5.28,17.15-10.99,25.18-17.25c3.37-2.63,6.61-5.42,9.69-8.38
		c1.649-1.59,5.899-0.9,8.159-1.03c3.95-0.22,7.881-0.55,11.82-0.91c40.93-3.8,82.83-15.09,117.271-38.18
		c25.02-16.76,46.859-42.3,47.239-73.79c0-0.08,0.011-0.17,0.011-0.26v-0.05C397.218,117.71,397.218,117.61,397.207,117.51z
		 M321.997,201.92c-23.13,10.92-48.27,17.47-73.5,21.27c-6.909,1.04-13.87,1.771-20.84,2.351c-3.39,0.28-6.79,0.479-10.189,0.66
		c-2.771,0.14-5.54-0.45-7.591,1.62c-6.779,6.84-14.7,12.529-22.649,17.92c-12.19,8.26-25.06,15.58-38.24,22.14
		c-8.29,4.12-18.17,9.8-27.59,10.66c-0.33,0.03-0.56,0.03-0.72,0.02c0.2-1.25,1.27-2.66,1.84-3.6c3.17-5.2,7.35-9.83,11.24-14.49
		c8.59-10.28,18.52-20.72,24.02-33.1c0.57-1.29,0.26-3.42-1.5-3.67c-46.52-6.45-98.21-22.69-129.45-59.95
		c-11.73-13.99-18.81-31.49-17.83-49.88c0.94-17.63,10.01-33.66,21.72-46.43c31.49-34.34,81.45-49.62,126.23-55.63
		c52.97-7.1,109.68-1.95,159.07,19.2c35.42,15.17,75.87,44.14,76.2,86.81C391.907,158.309,355.327,186.189,321.997,201.92z"/>
</g>
</svg>
